<svg width="70" height="70" viewBox="0 0 70 70" fill="none" xmlns="http://www.w3.org/2000/svg">
<g clip-path="url(#clip0_1659_1104)">
<path d="M62.2222 11.6666H7.77778C3.48223 11.6666 0 15.1489 0 19.4444V62.2222C0 66.5177 3.48223 70 7.77778 70H62.2222C66.5178 70 70 66.5177 70 62.2222V19.4444C70 15.1489 66.5178 11.6666 62.2222 11.6666Z" stroke="#0F96FE" stroke-width="3"/>
<path d="M0 27.2222C0 19.8877 -2.31796e-07 16.2244 2.27889 13.9455C4.55778 11.6666 8.22111 11.6666 15.5556 11.6666H54.4444C61.7789 11.6666 65.4422 11.6666 67.7211 13.9455C70 16.2244 70 19.8877 70 27.2222H0Z" fill="#0F96FE"/>
<path d="M15.5557 0V11.6667M54.4446 0V11.6667" stroke="#0F96FE" stroke-width="2" stroke-linecap="round"/>
</g>
<defs>
<clipPath id="clip0_1659_1104">
<rect width="70" height="70" fill="white"/>
</clipPath>
</defs>
</svg>
